<svg xmlns="http://www.w3.org/2000/svg" width="21" height="17" viewBox="0 0 21 17">
    <path fill="#020083" d="M19.95 7.447H3.585l5.632-5.65c.41-.41.41-1.078 0-1.489-.41-.41-1.075-.41-1.485 0L.308 7.755c-.05.05-.093.103-.131.16-.018.027-.03.056-.045.084-.018.032-.037.063-.051.098-.015.035-.024.072-.034.11-.009.028-.02.056-.026.086C.007 8.362 0 8.431 0 8.5v.002c0 .069.007.137.02.204.007.032.019.061.028.092.01.035.018.07.032.105.016.036.036.07.055.104.014.026.025.052.042.077.038.058.082.112.131.161l7.424 7.447c.41.41 1.075.41 1.485 0 .41-.411.41-1.078 0-1.49L3.585 9.553H19.95c.58 0 1.05-.471 1.05-1.053s-.47-1.053-1.05-1.053z"/>
</svg>
