<svg id="Layer_1" data-name="Layer 1" xmlns="http://www.w3.org/2000/svg" viewBox="0 0 400 300" width="406" height="306" class="illustration styles_illustrationTablet__1DWOa"><path d="M93.48,87S58.53,171.75,139.1,188.83s147.92,17.93,166-25.19S331.93,75.29,294.93,49,134.28,1.58,93.48,87Z" fill="#24285b"></path><path d="M202.9,155s12.26-3.48,18.19,1.74S219,173.36,219,173.36Z" fill="#24285b"></path><path d="M139.1,198.68s61.67-56.61,123.65-25.93c0,0-5.37,57.87-107.84,64.83C154.91,237.58,141.63,229.67,139.1,198.68Z" fill="#e6e6e6"></path><polygon points="190.83 82.96 190.98 98.66 199.58 97.96 196.02 86.81 190.83 82.96" fill="#f4a28c"></polygon><path d="M196.9,89.22a5.62,5.62,0,0,1-3-1.18s.6,2.81,4.16,5.08Z" fill="#ce8172" opacity="0.31"></path><path d="M209,104.88a5.44,5.44,0,0,1,8.85-3.26A33,33,0,0,1,226.74,114c5.69,13.4,7.94,18.74,14.11,16.37s18.38-19.22,18.38-19.22l4.75,3.56s-8.54,22.71-22.42,27.69C228.51,147.12,202.27,142.84,209,104.88Z" fill="#dc3545"></path><path d="M209,104.88a5.44,5.44,0,0,1,8.85-3.26A33,33,0,0,1,226.74,114c5.69,13.4,7.94,18.74,14.11,16.37s18.38-19.22,18.38-19.22l4.75,3.56s-8.54,22.71-22.42,27.69C228.51,147.12,202.27,142.84,209,104.88Z" opacity="0.08"></path><path d="M199.35,80.9a29.87,29.87,0,0,1,.48,7.94,2.39,2.39,0,0,1-2.71,2,5.28,5.28,0,0,1-4.55-3.52l-1.87-4a4.32,4.32,0,0,1,1.37-4.78C194.53,76.36,198.93,78,199.35,80.9Z" fill="#f4a28c"></path><path d="M198.2,81.23a19.38,19.38,0,0,1-4.41.15,4,4,0,0,1,.48,4.35,3.22,3.22,0,0,1-3.74,1.72l-.6-6.12a4.92,4.92,0,0,1,2-4.6,18,18,0,0,1,1.93-1.22c1.67-.9,4.37,0,5.81-1.38a1.15,1.15,0,0,1,1.89.55c.48,1.84.47,4.8-1.92,6.1A4.65,4.65,0,0,1,198.2,81.23Z" fill="#ffd200"></path><path d="M194.76,85.54s-.23-1.83-1.59-1.54-1,2.94.86,3Z" fill="#f4a28c"></path><path d="M199.78,83.89l1.53,1.69a.77.77,0,0,1-.35,1.25l-1.77.54Z" fill="#f4a28c"></path><path d="M187.76,95.79,197.83,95s20.83,0,24.72,14.17-12.78,49.42-12.78,49.42l-36.92,1.38s-3-18.87-2.2-35.81S172.13,98.81,187.76,95.79Z" fill="#dc3545"></path><path d="M199.58,111.67s-1.54,15-11.15,18-10,22.47-1.9,29.79l-13.68.51a188.39,188.39,0,0,1-2.08-38.22C172,102.36,199.58,111.67,199.58,111.67Z" opacity="0.08"></path><path d="M198.78,113.93c4.41-9.43-4.28-19.75-14.4-17.29-12.35,3-30.21,9.11-35.27,20.13-8,17.36-14.47,33.19-14.47,33.19l8.48,3.21s17.74-37.06,36.85-32C189.66,123.71,196,119.9,198.78,113.93Z" fill="#dc3545"></path><path d="M176.1,174.93s6,7,20.72,4.77l-13.36,13.1a5.61,5.61,0,0,0-1.33,6l1.22,3.26a4.31,4.31,0,0,0,6.16,2.26c8.71-4.9,27.65-17.88,33.75-40.66,0,0-5.42.09-9.21.41S182.89,170.62,176.1,174.93Z" opacity="0.08"></path><path d="M198.78,113.93c4.41-9.43-4.28-19.75-14.4-17.29-12.35,3-30.21,9.11-35.27,20.13-8,17.36-14.47,33.19-14.47,33.19l8.48,3.21s17.74-37.06,36.85-32C189.66,123.71,196,119.9,198.78,113.93Z" fill="#fff" opacity="0.44"></path><path d="M172.85,159.94s30.8-10.74,40.29-1.09-22.31,33.05-22.31,33.05l-4.1-4.9,12.46-15.82S170.83,178.91,172.85,159.94Z" fill="#24285b"></path><path d="M167.3,179.32l-22.59-6-38.19,14.88,32.58,10.44S160.47,184.4,167.3,179.32Z" fill="#c7c9c9"></path><path d="M190.67,232.4,182,253.35l-39.2,14.59,12.1-30.36S179.15,235.56,190.67,232.4Z" fill="#c7c9c9"></path><path d="M187.84,188.32l-3,.23a1.69,1.69,0,0,0-1.48,2.17l2,6.65a1.32,1.32,0,0,0,2.5.07l2.32-6.37Z" fill="#dc3545"></path><path d="M260.07,111.81s3.16-6.27,6.16-6.27-1,3.89-1,3.89,4,3.76-1.3,5.31Z" fill="#f4a28c"></path><path d="M136.91,150.82s-6.64,9.13,0,9.12,6.21-6.77,6.21-6.77Z" fill="#f4a28c"></path><path d="M140.55,209.5l-34.14,2L118.35,219,76.21,240.49l54.08-2.91-4.11,15,25.09-18.33S141.7,217.16,140.55,209.5Z" fill="#e6e6e6" opacity="0.3"></path><circle cx="161.6" cy="71.34" r="3.19" fill="#ffd200"></circle><circle cx="238.37" cy="39.49" r="2.31" fill="#fff"></circle><circle cx="274.85" cy="146.1" r="1.48" fill="#fff"></circle><circle cx="94.17" cy="119.96" r="1.48" fill="#fff"></circle><circle cx="184.31" cy="40.54" r="1.48" fill="#fff"></circle><circle cx="152.07" cy="164.54" r="1.48" fill="#fff"></circle><circle cx="115.81" cy="162.93" r="0.48" fill="#fff"></circle><circle cx="137.25" cy="55.35" r="0.48" fill="#fff"></circle><circle cx="220.79" cy="61.75" r="0.48" fill="#fff"></circle><circle cx="164.49" cy="141.89" r="0.48" fill="#fff"></circle><circle cx="244.15" cy="100" r="0.48" fill="#fff"></circle><circle cx="127.65" cy="112.49" r="0.48" fill="#fff"></circle><circle cx="303.55" cy="112.16" r="0.48" fill="#fff"></circle><circle cx="293" cy="52.89" r="0.48" fill="#fff"></circle><circle cx="271.72" cy="177.64" r="0.48" fill="#fff"></circle><circle cx="232.4" cy="154.49" r="0.48" fill="#fff"></circle><circle cx="273.79" cy="74.53" r="23.01" fill="#ffd200"></circle><path d="M252.42,66s-14.12.24-15.06,9.6,43.36,16.68,59.45,14.79,17.42-10.37,0-17.7c0,0,1.39,8.91-10.59,8.2C272.13,80,246.47,78.9,252.42,66Z" fill="#ffd200"></path><path d="M252.42,66s-14.12.24-15.06,9.6,43.36,16.68,59.45,14.79,17.42-10.37,0-17.7c0,0,1.39,8.91-10.59,8.2C272.13,80,246.47,78.9,252.42,66Z" fill="#fff" opacity="0.44"></path><ellipse cx="269.7" cy="58.25" rx="5.08" ry="3.84" opacity="0.08"></ellipse><ellipse cx="281.26" cy="59.3" rx="2.68" ry="3.54" transform="translate(67.79 251.8) rotate(-53.95)" opacity="0.08"></ellipse><ellipse cx="276.04" cy="65.34" rx="2.68" ry="2.03" opacity="0.08"></ellipse><circle cx="303.89" cy="157.07" r="15.17" fill="#dc3545"></circle><ellipse cx="310.36" cy="151.69" rx="3.13" ry="4.13" transform="translate(5.07 313.35) rotate(-53.95)" opacity="0.08"></ellipse><ellipse cx="300.77" cy="149.33" rx="3.12" ry="2.36" opacity="0.08"></ellipse><circle cx="109.2" cy="85.58" r="18.79" fill="#dc3545"></circle><ellipse cx="110.37" cy="75.23" rx="5.11" ry="3.87" transform="translate(-9.19 15.68) rotate(-7.8)" opacity="0.08"></ellipse><ellipse cx="99.78" cy="81.36" rx="3.87" ry="2.93" transform="translate(-28.54 91.82) rotate(-43.86)" opacity="0.08"></ellipse></svg>